<?xml version="1.0" encoding="utf-8"?>
<!-- Generator: Adobe Illustrator 17.1.0, SVG Export Plug-In . SVG Version: 6.00 Build 0)  -->
<!DOCTYPE svg PUBLIC "-//W3C//DTD SVG 1.1//EN" "http://www.w3.org/Graphics/SVG/1.1/DTD/svg11.dtd">
<svg version="1.1" id="Layer_1" xmlns="http://www.w3.org/2000/svg" xmlns:xlink="http://www.w3.org/1999/xlink" x="0px" y="0px"
	 viewBox="0 0 464 196" enable-background="new 0 0 464 196" xml:space="preserve">
<g>
	<polygon points="382.1,0.2 307.1,45.2 232,0.2 156.9,45.2 81.9,0.2 0,49.3 0,146.7 81.9,195.8 156.9,150.8 232,195.8 307.1,150.8 
		382.1,195.8 464,146.7 464,49.3 	"/>
	<polygon fill="#FF0000" points="81.9,16.1 13.6,57.1 13.6,138.9 81.9,179.9 150.1,138.9 150.1,57.1 	"/>
	<polygon fill="#00FF00" points="232,16.1 163.8,57.1 163.8,138.9 232,179.9 300.2,138.9 300.2,57.1 	"/>
	<polygon fill="#005CFF" points="382.1,16.1 313.9,57.1 313.9,138.9 382.1,179.9 450.4,138.9 450.4,57.1 	"/>
	<g>
		<path d="M51.1,67.2h18.2l20.7,25.6V67.2h19.3v58.1H91.9L70.3,98.5v26.8H51.1V67.2z"/>
	</g>
	<g>
		<path d="M204.8,67.2h32.5c8.1,0,13.1,1.8,16.5,5.2c2.1,2.1,3.6,5.1,3.6,9v0.2c0,6.9-4.2,11.1-10.4,13.3
			c7.5,2.2,12.3,6.1,12.3,14.1v0.2c0,9.3-7.6,16.1-22.3,16.1h-32.2V67.2z M232.2,90c4.2,0,6.1-1.4,6.1-4v-0.2c0-2.6-2.1-4-6.2-4
			h-8.4V90H232.2z M233.4,110.6c4.2,0,6.4-1.7,6.4-4.2v-0.2c0-2.5-2.1-4.2-6.3-4.2h-9.8v8.6H233.4z"/>
	</g>
	<g>
		<path d="M354.8,67.2h22.2c23.1,0,34.6,11.4,34.6,28.6v0.2c0,17.2-11.8,29.4-35.3,29.4h-21.6V67.2z M377.5,108.4
			c8.9,0,14.6-3.7,14.6-12v-0.2c0-8.4-5.7-12-14.6-12h-3.2v24.2H377.5z"/>
	</g>
	<polygon points="232,195.8 382.1,195.8 307.1,150.8 	"/>
	<polygon points="232,0.2 81.9,0.2 156.9,45.2 	"/>
	<g>
		<path fill="#FFFFFF" d="M275.3,178.5l7.6-5.5c1.2-0.8,1.6-1.5,1.6-2.2c0-0.8-0.6-1.4-1.7-1.4c-1.1,0-2,0.7-3.6,2.3l-4.1-3.5
			c2.1-2.6,4.3-4.1,8.1-4.1c4.2,0,7.2,2.5,7.2,6v0.1c0,2.8-1.5,4.4-3.7,5.8l-3.3,2.1h7.2v4.8h-15.6V178.5z"/>
		<path fill="#FFFFFF" d="M292.1,173.8L292.1,173.8c0-5.1,3.3-9.7,8.9-9.7c5.6,0,8.9,4.5,8.9,9.6v0.1c0,5.1-3.3,9.6-8.9,9.6
			C295.4,183.3,292.1,178.9,292.1,173.8z M303.8,173.8L303.8,173.8c0-2.6-1.1-4.3-2.8-4.3c-1.7,0-2.7,1.7-2.7,4.2v0.1
			c0,2.5,1.1,4.3,2.8,4.3C302.7,178,303.8,176.3,303.8,173.8z"/>
		<path fill="#FFFFFF" d="M313.8,169.8l-3,0.7l-1.1-4.6l5.5-1.5h4.7V183h-6.1V169.8z"/>
		<path fill="#FFFFFF" d="M330.8,179.8H322l-1-4.3l9-11.1h6.9v11h2.2v4.4h-2.2v3.2h-6V179.8z M330.8,175.5v-4.9l-3.9,4.9H330.8z"/>
	</g>
	<g>
		<path fill="#FFFFFF" d="M136.6,13.2h6.1l7.8,18.6h-6.7l-1-2.5h-6.5l-0.9,2.5h-6.6L136.6,13.2z M141.3,25l-1.7-4.5l-1.7,4.5H141.3z
			"/>
		<path fill="#FFFFFF" d="M153.6,18.6h-5.4v-5.2h17v5.2h-5.4v13.2h-6.2V18.6z"/>
		<path fill="#FFFFFF" d="M171.5,22.4l-6-9.1h7l2.7,4.4l2.7-4.4h6.9l-6,9l6.2,9.5h-7l-2.9-4.8l-3,4.8h-6.9L171.5,22.4z"/>
	</g>
</g>
</svg>
