<svg width="464" height="196" xmlns="http://www.w3.org/2000/svg"><title>Layer 1</title><path d="M382.1.2l-75 45L232 .2l-75.1 45-75-45L0 49.3v97.4l81.9 49.1 75-45 75.1 45 75.1-45 75 45 81.9-49.1V49.3z"/><path fill="#f00" d="M81.9 16.1l-68.3 41v81.8l68.3 41 68.2-41V57.1z"/><path fill="#0f0" d="M232 16.1l-68.2 41v81.8l68.2 41 68.2-41V57.1z"/><path fill="#005CFF" d="M382.1 16.1l-68.2 41v81.8l68.2 41 68.3-41V57.1z"/><path d="M51.1 67.2h18.2L90 92.8V67.2h19.3v58.1H91.9L70.3 98.5v26.8H51.1V67.2zM204.8 67.2h32.5c8.1 0 13.1 1.8 16.5 5.2 2.1 2.1 3.6 5.1 3.6 9v.2c0 6.9-4.2 11.1-10.4 13.3 7.5 2.2 12.3 6.1 12.3 14.1v.2c0 9.3-7.6 16.1-22.3 16.1h-32.2V67.2zM232.2 90c4.2 0 6.1-1.4 6.1-4v-.2c0-2.6-2.1-4-6.2-4h-8.4V90h8.5zm1.2 20.6c4.2 0 6.4-1.7 6.4-4.2v-.2c0-2.5-2.1-4.2-6.3-4.2h-9.8v8.6h9.7zM354.8 67.2H377c23.1 0 34.6 11.4 34.6 28.6v.2c0 17.2-11.8 29.4-35.3 29.4h-21.6V67.2h.1zm22.7 41.2c8.9 0 14.6-3.7 14.6-12v-.2c0-8.4-5.7-12-14.6-12h-3.2v24.2h3.2zM232 .2H81.9l75 45z"/><g fill="#fff"><path d="M136.6 13.2h6.1l7.8 18.6h-6.7l-1-2.5h-6.5l-.9 2.5h-6.6l7.8-18.6zm4.7 11.8l-1.7-4.5-1.7 4.5h3.4zM153.6 18.6h-5.4v-5.2h17v5.2h-5.4v13.2h-6.2V18.6zM171.5 22.4l-6-9.1h7l2.7 4.4 2.7-4.4h6.9l-6 9 6.2 9.5h-7l-2.9-4.8-3 4.8h-6.9l6.3-9.4z"/></g></svg>