<svg xmlns="http://www.w3.org/2000/svg" viewBox="0 0 464 196"><path d="M382.1.2l-75 45L232 .2l-75.1 45-75-45L0 49.3v97.4l81.9 49.1 75-45 75.1 45 75.1-45 75 45 81.9-49.1V49.3"/><path fill="#F00" d="M81.9 16.1l-68.3 41v81.8l68.3 41 68.2-41V57.1"/><path fill="#0F0" d="M232 16.1l-68.2 41v81.8l68.2 41 68.2-41V57.1"/><path fill="#005CFF" d="M382.1 16.1l-68.2 41v81.8l68.2 41 68.3-41V57.1"/><path d="M51.1 67.2h18.2L90 92.8V67.2h19.3v58.1H91.9L70.3 98.5v26.8H51.1V67.2zm153.7 0h32.5c8.1 0 13.1 1.8 16.5 5.2 2.1 2.1 3.6 5.1 3.6 9v.2c0 6.9-4.2 11.1-10.4 13.3 7.5 2.2 12.3 6.1 12.3 14.1v.2c0 9.3-7.6 16.1-22.3 16.1h-32.2V67.2zM232.2 90c4.2 0 6.1-1.4 6.1-4v-.2c0-2.6-2.1-4-6.2-4h-8.4V90h8.5zm1.2 20.6c4.2 0 6.4-1.7 6.4-4.2v-.2c0-2.5-2.1-4.2-6.3-4.2h-9.8v8.6h9.7zm121.4-43.4H377c23.1 0 34.6 11.4 34.6 28.6v.2c0 17.2-11.8 29.4-35.3 29.4h-21.6V67.2zm22.7 41.2c8.9 0 14.6-3.7 14.6-12v-.2c0-8.4-5.7-12-14.6-12h-3.2v24.2h3.2zM232 195.8h150.1l-75-45M232 .2H81.9l75 45"/><path d="M275.3 178.5l7.6-5.5c1.2-.8 1.6-1.5 1.6-2.2 0-.8-.6-1.4-1.7-1.4s-2 .7-3.6 2.3l-4.1-3.5c2.1-2.6 4.3-4.1 8.1-4.1 4.2 0 7.2 2.5 7.2 6v.1c0 2.8-1.5 4.4-3.7 5.8l-3.3 2.1h7.2v4.8H275v-4.4zm16.8-4.7c0-5.1 3.3-9.7 8.9-9.7 5.6 0 8.9 4.5 8.9 9.6v.1c0 5.1-3.3 9.6-8.9 9.6-5.6-.1-8.9-4.5-8.9-9.6zm11.7 0c0-2.6-1.1-4.3-2.8-4.3-1.7 0-2.7 1.7-2.7 4.2v.1c0 2.5 1.1 4.3 2.8 4.3 1.6-.1 2.7-1.8 2.7-4.3zm10-4l-3 .7-1.1-4.6 5.5-1.5h4.7V183h-6.1v-13.2zm17 10H322l-1-4.3 9-11.1h6.9v11h2.2v4.4h-2.2v3.2h-6v-3.2zm0-4.3v-4.9l-3.9 4.9h3.9zM136.6 13.2h6.1l7.8 18.6h-6.7l-1-2.5h-6.5l-.9 2.5h-6.6l7.8-18.6zm4.7 11.8l-1.7-4.5-1.7 4.5h3.4zm12.3-6.4h-5.4v-5.2h17v5.2h-5.4v13.2h-6.2V18.6zm17.9 3.8l-6-9.1h7l2.7 4.4 2.7-4.4h6.9l-6 9 6.2 9.5h-7l-2.9-4.8-3 4.8h-6.9l6.3-9.4z" fill="#FFF"/></svg>