<svg xmlns="http://www.w3.org/2000/svg" viewBox="0 0 62 50"><path fill="#FFF" d="M62 5.9c-2.3 1-4.7 1.7-7.3 2 2.6-1.6 4.6-4 5.6-7-2.5 1.4-5.2 2.5-8.1 3.1-2.3-2.5-5.6-4-9.3-4-7 0-12.7 5.7-12.7 12.6 0 1 .1 2 .3 2.9C20 15 10.6 9.9 4.3 2.3c-1.1 1.9-1.7 4-1.7 6.3 0 4.4 2.2 8.2 5.7 10.5-2.1-.1-4-.6-5.8-1.6v.2c0 6.1 4.4 11.2 10.2 12.4-1.1.3-2.2.4-3.4.4-.8 0-1.6-.1-2.4-.2 1.6 5 6.3 8.7 11.9 8.8C14.5 42.5 9 44.5 3 44.5c-1 0-2-.1-3-.2C5.6 47.9 12.3 50 19.5 50c23.4 0 36.2-19.2 36.2-35.9v-1.6c2.4-1.8 4.6-4 6.3-6.6z"/></svg>